<svg  xmlns="http://www.w3.org/2000/svg"
xmlns:xlink="http://www.w3.org/1999/xlink" viewBox="214.7 0 182.6 792">
    <circle cx="344.8" cy="20.2" r="20.2"></circle>
    <circle cx="344.8" cy="92.9" r="20.2"></circle>
    <circle cx="320.5" cy="169.7" r="24.2"></circle>
    <circle cx="243" cy="141.4" r="24.2"></circle>
    <circle cx="284.2" cy="56.6" r="36.4"></circle>
    <path d="M397.3 768.5l-11.3-343.5v-178.5l9.7-20.2h-29.9l-4 13.7 2.4 189.9 9.7 316.8c1.6 14.5-19.4 12.9-34.8 12.9h-33.9s-38.8.8-46.1 0c-14.5-.8-18.6 1.6-17-29.1 1.6-25.2.8-95.5 5.7-301.5l-2.4-189.9-3.2-12.9h-27.5l9.7 20.2v178.6s-3.2 323.3-3.2 343.5c0 26.7 22.6 23.4 22.6 23.4h128.5c7.2 0 25 0 25-23.4zM259.9 473.5h93.8l-1.6-79.9h-92.2zM356.1 611.7l-2.4-132.6v5.7h-93.8l-.8 126.9zM352.1 382.3l-1.7-99.4h-89.7l-.8 99.4zM259.1 623l-.8 123.6h101l-2.4-123.6z"></path>
  </symbol>

</svg>
